<svg xmlns="http://www.w3.org/2000/svg" width="1200" height="630" viewBox="0 0 1200 630">
  <defs>
    <linearGradient id="bg" x1="0" y1="0" x2="1" y2="1">
      <stop offset="0%" stop-color="#05060a"/>
      <stop offset="55%" stop-color="#070915"/>
      <stop offset="100%" stop-color="#0a0b14"/>
    </linearGradient>
    <linearGradient id="accent" x1="0" y1="0" x2="1" y2="0">
      <stop offset="0%" stop-color="#b7ff4e"/>
      <stop offset="45%" stop-color="#00d1ff"/>
      <stop offset="100%" stop-color="#ff3d9a"/>
    </linearGradient>
    <radialGradient id="orb1" cx="22%" cy="20%" r="60%">
      <stop offset="0%" stop-color="#b7ff4e" stop-opacity="0.22"/>
      <stop offset="55%" stop-color="#b7ff4e" stop-opacity="0.06"/>
      <stop offset="100%" stop-color="#b7ff4e" stop-opacity="0"/>
    </radialGradient>
    <radialGradient id="orb2" cx="78%" cy="26%" r="60%">
      <stop offset="0%" stop-color="#00d1ff" stop-opacity="0.20"/>
      <stop offset="55%" stop-color="#00d1ff" stop-opacity="0.06"/>
      <stop offset="100%" stop-color="#00d1ff" stop-opacity="0"/>
    </radialGradient>
    <radialGradient id="orb3" cx="64%" cy="78%" r="65%">
      <stop offset="0%" stop-color="#ff3d9a" stop-opacity="0.22"/>
      <stop offset="55%" stop-color="#ff3d9a" stop-opacity="0.06"/>
      <stop offset="100%" stop-color="#ff3d9a" stop-opacity="0"/>
    </radialGradient>
    <filter id="soft" x="-20%" y="-20%" width="140%" height="140%">
      <feGaussianBlur stdDeviation="18"/>
    </filter>
    <filter id="glow" x="-20%" y="-20%" width="140%" height="140%">
      <feGaussianBlur stdDeviation="6" result="b"/>
      <feColorMatrix in="b" type="matrix" values="
        1 0 0 0 0
        0 1 0 0 0
        0 0 1 0 0
        0 0 0 0.6 0" result="g"/>
      <feMerge>
        <feMergeNode in="g"/>
        <feMergeNode in="SourceGraphic"/>
      </feMerge>
    </filter>
  </defs>

  <rect width="1200" height="630" fill="url(#bg)"/>
  <rect width="1200" height="630" fill="url(#orb1)"/>
  <rect width="1200" height="630" fill="url(#orb2)"/>
  <rect width="1200" height="630" fill="url(#orb3)"/>

  <g opacity="0.45" filter="url(#soft)">
    <circle cx="200" cy="140" r="160" fill="#b7ff4e"/>
    <circle cx="980" cy="170" r="180" fill="#00d1ff"/>
    <circle cx="820" cy="560" r="240" fill="#ff3d9a"/>
  </g>

  <!-- Subtle flow lines -->
  <g opacity="0.16" stroke="url(#accent)" stroke-width="2" fill="none">
    <path d="M80 470 C 260 330, 420 610, 610 470 C 770 360, 880 420, 1120 280"/>
    <path d="M120 520 C 300 380, 430 650, 660 500 C 820 390, 960 440, 1140 320"/>
    <path d="M70 410 C 260 260, 460 520, 620 410 C 820 280, 980 330, 1130 220"/>
  </g>

  <g fill="#ffffff">
    <text x="120" y="258"
      font-family="ui-sans-serif, system-ui, -apple-system, Segoe UI, Helvetica, Arial"
      font-size="88" font-weight="800" letter-spacing="6" opacity="0.92">
      MOS
    </text>
    <text x="120" y="338"
      font-family="ui-sans-serif, system-ui, -apple-system, Segoe UI, Helvetica, Arial"
      font-size="54" font-weight="800" letter-spacing="1"
      fill="url(#accent)" filter="url(#glow)">
      Turn the wheel into flow.
    </text>
    <text x="120" y="404"
      font-family="ui-sans-serif, system-ui, -apple-system, Segoe UI, Helvetica, Arial"
      font-size="26" font-weight="500" opacity="0.70">
      Smooth mouse scrolling on macOS. Per-app profiles. Independent axes. Buttons & shortcuts.
    </text>
  </g>
</svg>
