<svg width="135" height="135" viewBox="0 0 135 135" fill="none" xmlns="http://www.w3.org/2000/svg">
<path d="M37 104.676C37 108.351 40.8501 110.161 44.3785 107.818L49.3077 104.722L54.5606 108.155C55.4732 108.76 56.2578 108.809 57.2041 108.155L62.2906 104.688L67.5435 108.155C68.4561 108.793 69.2408 108.793 70.187 108.155L75.44 104.688L80.5415 108.155C81.5552 108.842 82.2051 108.827 83.1699 108.155L88.4566 104.737L93.4195 107.818C96.9107 110.161 100.798 108.351 100.798 104.676V37.499C100.798 29.856 96.8897 26 89.1641 26H48.6338C40.8897 26 37 29.856 37 37.499V104.676ZM42.4268 102.959V37.7989C42.4268 33.6035 44.6558 31.4268 48.7315 31.4268H89.0664C93.1421 31.4268 95.3526 33.6035 95.3526 37.7989L95.3189 102.959L89.6807 99.4014C88.8321 98.8237 88.0288 98.7935 87.1465 99.4014L81.8633 102.898L76.7163 99.4014C75.8828 98.7935 75.0645 98.7935 74.1973 99.4014L68.8653 102.898L63.5821 99.4014C62.7149 98.8086 61.8965 98.7935 61.0142 99.4014L55.8824 102.898L50.584 99.4014C49.7017 98.7935 48.9136 98.8237 48.0464 99.4014L42.4268 102.959ZM52.7657 47.7227H72.2896C73.5342 47.7227 74.4453 46.8267 74.4453 45.6494C74.4453 44.4385 73.5342 43.5088 72.2896 43.5088H52.7657C51.5396 43.5088 50.6436 44.4385 50.6436 45.6494C50.6436 46.8267 51.5396 47.7227 52.7657 47.7227ZM81.6934 47.7227H84.9043C86.1641 47.7227 87.0752 46.8267 87.0752 45.6494C87.0752 44.4385 86.1641 43.5088 84.9043 43.5088H81.6934C80.5161 43.5088 79.5713 44.4385 79.5713 45.6494C79.5713 46.8267 80.5161 47.7227 81.6934 47.7227ZM52.7657 61.3946H72.2896C73.5342 61.3946 74.4453 60.4986 74.4453 59.3213C74.4453 58.1104 73.5342 57.1807 72.2896 57.1807H52.7657C51.5396 57.1807 50.6436 58.1104 50.6436 59.3213C50.6436 60.4986 51.5396 61.3946 52.7657 61.3946ZM81.6934 61.3946H84.9043C86.1641 61.3946 87.0752 60.4986 87.0752 59.3213C87.0752 58.1104 86.1641 57.1807 84.9043 57.1807H81.6934C80.5161 57.1807 79.5713 58.1104 79.5713 59.3213C79.5713 60.4986 80.5161 61.3946 81.6934 61.3946ZM52.7657 74.8643H72.3653C73.6099 74.8643 74.521 73.9346 74.521 72.7573C74.521 71.5952 73.6099 70.6167 72.3653 70.6167H52.7657C51.5396 70.6167 50.6436 71.5952 50.6436 72.7573C50.6436 73.9346 51.5396 74.8643 52.7657 74.8643ZM81.6177 74.8643H84.9043C86.1641 74.8643 87.0752 73.9346 87.0752 72.7573C87.0752 71.5952 86.1641 70.6167 84.9043 70.6167H81.6177C80.4068 70.6167 79.4956 71.5952 79.4956 72.7573C79.4956 73.9346 80.4068 74.8643 81.6177 74.8643ZM52.7657 88.5362H72.3653C73.6099 88.5362 74.521 87.6065 74.521 86.4292C74.521 85.2671 73.6099 84.2886 72.3653 84.2886H52.7657C51.5396 84.2886 50.6436 85.2671 50.6436 86.4292C50.6436 87.6065 51.5396 88.5362 52.7657 88.5362ZM81.6177 88.5362H84.9043C86.1641 88.5362 87.0752 87.6065 87.0752 86.4292C87.0752 85.2671 86.1641 84.2886 84.9043 84.2886H81.6177C80.4068 84.2886 79.4956 85.2671 79.4956 86.4292C79.4956 87.6065 80.4068 88.5362 81.6177 88.5362Z" fill="black"/>
</svg>
