<svg width="135" height="135" viewBox="0 0 135 135" fill="none" xmlns="http://www.w3.org/2000/svg">
<path d="M44.2442 101.38L87.4947 109.004C95.1392 110.359 99.8487 106.14 99.8487 97.8805V50.4787C99.8487 43.0592 96.0127 40.2003 88.4405 38.86L46.3487 31.4684C40.6826 30.4396 37 33.4455 37 38.9787V92.9943C37 97.7579 39.4131 100.528 44.2442 101.38ZM45.4991 96.0021C43.4419 95.6485 42.4268 94.4752 42.4268 92.2413V39.8932C42.4268 37.6056 43.9502 36.4508 46.4449 36.8986L88.1895 44.238C92.3325 44.9635 94.4219 46.694 94.4219 50.3576V97.3229C94.4219 101.905 91.688 104.213 87.3648 103.39L45.4991 96.0021ZM91.0039 43.2487H96.4307V34.1989C96.4307 26.5084 91.2696 22.8039 82.5689 24.3429L42.5332 31.4381L44.5225 36.1457L84.4688 29.4362C88.5747 28.7629 91.0039 30.4362 91.0039 34.027V43.2487ZM47.646 54.6183C47.646 57.5202 52.1294 57.5353 52.1294 54.7868V49.4767C52.1294 48.2531 52.8448 47.7751 54.1963 47.9972L59.4576 48.903C62.3477 49.4352 62.9893 45.0529 60.3267 44.5729L52.5284 43.2106C49.5181 42.6921 47.646 43.9128 47.646 46.7951V54.6183ZM84.7041 61.0631C84.7041 63.9196 89.2027 64.216 89.2027 61.0631V54.838C89.2027 51.2316 87.376 49.341 83.0928 48.5783L79.2032 47.8913C76.1109 47.3102 75.3228 51.6925 78.5142 52.2702L81.6846 52.8224C84.1524 53.255 84.7041 54.6676 84.7041 56.1032V61.0631ZM52.1294 79.778C52.1294 76.9215 47.646 76.6251 47.646 79.778V86.0182C47.646 89.6432 49.4576 91.5153 53.7559 92.2628L57.6641 92.9498C60.7715 93.5157 61.5259 89.1334 58.3682 88.5709L55.1978 88.0187C52.6963 87.5861 52.1294 86.2072 52.1294 84.7379V79.778ZM89.2027 86.2228C89.2027 83.3546 84.7041 83.3395 84.7041 86.0543V91.3644C84.7041 92.588 84.0039 93.0997 82.6372 92.8438L77.3911 91.9381C74.501 91.4396 73.8931 95.8219 76.5406 96.2682L84.3203 97.6642C87.3155 98.1827 89.2027 96.9283 89.2027 94.046V86.2228Z" fill="black"/>
</svg>
